<?xml version="1.0" standalone="no"?><!DOCTYPE svg PUBLIC "-//W3C//DTD SVG 1.1//EN" "http://www.w3.org/Graphics/SVG/1.1/DTD/svg11.dtd"><svg t="1553148195999" class="icon" style="" viewBox="0 0 1024 1024" version="1.1" xmlns="http://www.w3.org/2000/svg" p-id="5194" xmlns:xlink="http://www.w3.org/1999/xlink" width="200" height="200"><defs><style type="text/css"></style></defs><path d="M511.971556 0c-282.282667 0-512 229.688889-512 512 0 282.339556 229.717333 512 512 512 282.368 0 512.056889-229.660444 512.056889-512C1024.028444 229.688889 794.339556 0 511.971556 0zM645.233778 329.472l109.112889-91.932444c3.896889-3.299556 8.362667-4.892444 12.771556-4.892444 7.139556 0 14.136889 4.152889 18.488889 11.832889l3.953778 7.025778c7.025778 12.458667 4.465778 29.468444-5.688889 38.030222l-109.112889 91.989333c-3.925333 3.328-8.362667 4.892444-12.771556 4.892444-7.139556 0-14.136889-4.152889-18.488889-11.804444l-3.925333-7.054222C632.405333 355.128889 634.993778 338.033778 645.233778 329.472zM576.426667 748.629333c0 32.938667-13.511111 42.069333-27.648 42.069333-10.979556 0-22.272-5.518222-27.932444-9.671111-42.666667-31.459556-129.678222-81.123556-189.895111-125.297778l-0.056889-0.056889-2.161778-3.328c-7.310222-4.096-10.581333-15.502222-50.232889-15.559111L200.248889 636.785778c-20.992 0-32.426667-10.410667-32.426667-31.516444l0-187.619556c0-21.105778 12.401778-30.435556 32.426667-30.435556l77.966222 0c39.879111 0 43.207111-11.463111 50.545778-15.559111l2.161778-3.299556 0.056889-0.056889c62.208-44.288 148.593778-90.311111 189.895111-123.107556 5.717333-4.579556 17.806222-10.922667 29.269333-10.922667 13.596444 0 26.311111 9.045333 26.311111 40.931556L576.455111 748.629333zM789.560889 772.551111l-4.010667 6.997333c-4.352 7.651556-11.406222 11.804444-18.488889 11.804444-4.380444 0-8.846222-1.564444-12.714667-4.835556l-109.112889-91.932444c-10.24-8.675556-12.828444-25.628444-5.774222-38.087111l4.039111-7.025778c4.352-7.68 11.349333-11.832889 18.488889-11.832889 4.408889 0 8.846222 1.564444 12.771556 4.835556l109.084444 91.960889C794.026667 743.025778 796.586667 760.035556 789.560889 772.551111zM856.149333 516.039111c0 15.132444-12.174222 27.363556-27.278222 27.363556l-132.778667 0c-15.018667 0-27.221333-12.231111-27.221333-27.363556l0-8.561778c0-15.075556 12.202667-27.363556 27.221333-27.363556l132.778667 0c15.075556 0 27.278222 12.288 27.278222 27.363556L856.149333 516.039111z" p-id="5195"></path></svg>