<?xml version="1.0" standalone="no"?><!DOCTYPE svg PUBLIC "-//W3C//DTD SVG 1.1//EN" "http://www.w3.org/Graphics/SVG/1.1/DTD/svg11.dtd"><svg class="icon" style="" viewBox="0 0 1024 1024" version="1.1" xmlns="http://www.w3.org/2000/svg"  xmlns:xlink="http://www.w3.org/1999/xlink" width="200" height="200"><defs><style type="text/css"></style></defs><path d="M835.664635 922.490257H188.744679c-46.866394 0-84.830219-33.973019-84.830219-75.825322V185.419007c0-43.591886 35.610273-78.895173 79.611472-78.895174H544.540422c14.632957 0 26.503048 11.767763 26.503048 26.298391s-11.870091 26.298391-26.503048 26.298392H210.131308c-29.265914 0-49.526931 0.409313-49.526931 29.675227v632.593984c0 27.935645 28.8566 42.773259 60.066753 42.773259h583.27171c31.210153 0 60.066753-14.939942 60.066753-42.773259v-388.847806c0-14.632957 12.688718-26.503048 28.24263-26.503048 15.656241 0 28.24263 11.870091 28.242631 26.503048v414.122914c0 41.852303-38.066154 75.825322-84.830219 75.825322zM449.682023 621.747177c-12.484061 11.358449-32.847407 11.358449-45.433797 0-12.58639-11.358449-12.58639-29.777556 0-41.238333l460.375338-468.152294c12.58639-11.358449 32.847407-11.358449 45.433796 0 12.58639 11.358449 12.58639 29.777556 0 41.238334L449.682023 621.747177z" ></path></svg>
