<?xml version="1.0" standalone="no"?><!DOCTYPE svg PUBLIC "-//W3C//DTD SVG 1.1//EN" "http://www.w3.org/Graphics/SVG/1.1/DTD/svg11.dtd"><svg  class="icon" style="" viewBox="0 0 1024 1024" version="1.1" xmlns="http://www.w3.org/2000/svg"  xmlns:xlink="http://www.w3.org/1999/xlink" width="200" height="200"><defs><style type="text/css"></style></defs><path d="M917.333333 1024H103.822222c-28.444444 0-48.355556-22.755556-48.355555-48.355556V145.066667c0-25.6 19.911111-48.355556 48.355555-48.355556h79.644445v48.355556C183.466667 199.111111 226.133333 241.777778 277.333333 241.777778S368.355556 196.266667 368.355556 145.066667V96.711111h48.355555v48.355556c0 54.044444 42.666667 96.711111 93.866667 96.711111s93.866667-42.666667 93.866666-96.711111V96.711111H652.8v48.355556c0 54.044444 42.666667 96.711111 93.866667 96.711111 51.2 0 93.866667-42.666667 93.866666-96.711111V96.711111h79.644445c25.6 0 48.355556 22.755556 48.355555 48.355556v830.577777c-2.844444 25.6-22.755556 48.355556-51.2 48.355556z m-125.155555-657.066667H228.977778c-25.6 0-48.355556 22.755556-48.355556 48.355556 0 25.6 19.911111 48.355556 48.355556 48.355555H795.022222c25.6 0 48.355556-22.755556 48.355556-48.355555-2.844444-25.6-25.6-48.355556-51.2-48.355556z m0 207.644445H228.977778c-25.6 0-48.355556 22.755556-48.355556 48.355555 0 25.6 19.911111 48.355556 48.355556 48.355556H795.022222c25.6 0 48.355556-22.755556 48.355556-48.355556-2.844444-25.6-25.6-48.355556-51.2-48.355555z m8.533333 210.488889H220.444444c-22.755556 0-39.822222 17.066667-39.822222 39.822222s17.066667 39.822222 39.822222 39.822222h580.266667c22.755556 0 39.822222-17.066667 39.822222-39.822222s-17.066667-39.822222-39.822222-39.822222zM746.666667 193.422222c-25.6 0-48.355556-22.755556-48.355556-48.355555V48.355556c0-25.6 19.911111-48.355556 48.355556-48.355556 25.6 0 48.355556 22.755556 48.355555 48.355556v96.711111c-2.844444 25.6-22.755556 48.355556-48.355555 48.355555z m-236.088889 0c-25.6 0-48.355556-22.755556-48.355556-48.355555V48.355556c0-25.6 22.755556-48.355556 48.355556-48.355556 25.6 0 48.355556 22.755556 48.355555 48.355556v96.711111c0 25.6-22.755556 48.355556-48.355555 48.355555z m-236.088889 0c-25.6 0-45.511111-22.755556-45.511111-48.355555V48.355556C228.977778 22.755556 248.888889 0 274.488889 0c25.6 0 48.355556 22.755556 48.355555 48.355556v96.711111c0 25.6-22.755556 48.355556-48.355555 48.355555z" ></path></svg>
