<?xml version="1.0" standalone="no"?><!DOCTYPE svg PUBLIC "-//W3C//DTD SVG 1.1//EN" "http://www.w3.org/Graphics/SVG/1.1/DTD/svg11.dtd"><svg  class="icon" style="" viewBox="0 0 1024 1024" version="1.1" xmlns="http://www.w3.org/2000/svg"  xmlns:xlink="http://www.w3.org/1999/xlink" width="200" height="200"><defs><style type="text/css"></style></defs><path d="M587.193353 608.697523v27.718611h-150.474982v201.357172h-45.903433V636.627996h-155.983394v-27.930473h156.530704l-3.531033-126.728784h-155.771532v-26.765233h148.762431l-162.604082-229.075783h46.856812c61.863703 109.161893 98.162725 158.19029 122.562164 190.922969 4.678619 5.967446 8.403859 11.405237 12.023169 16.419305l4.802205 6.39117h20.550614l3.72524-10.451859c1.818482-4.484412 8.297928-13.541513 15.342339-24.187577 9.780962-13.859306 23.534337-33.368264 37.375987-58.526877l79.448249-120.673062h42.160537l-163.663392 229.075783h144.913605V481.986394l-148.126845 0.953379 0.317793 125.775405h150.686844z" p-id="6076"></path><path d="M814.344723 67.07233A67.054322 67.054322 0 0 0 747.07854 0.000353H76.093943C38.947473 0.000353 8.82776 29.943515 8.82776 66.913433v873.630596c0 36.722746 30.066748 66.87777 67.230873 66.87777h405.380274s32.379575 0 32.379575-30.013783c0-29.978472-32.379575-30.419852-32.379575-30.419852H76.058633c-3.76055 0-6.850205-3.071999-6.850204-6.444135V66.860468c0-3.407447 3.036689-6.39117 6.885514-6.39117h670.984597c3.884137 0 6.832549 2.930758 6.832549 6.603032v339.067469s0.388414 30.914196 30.402196 30.543438c30.031438-0.406069 30.031438-30.543438 30.031438-30.543438V67.07233z" ></path><path d="M679.72408 1006.344834h-88.275832a17.655166 17.655166 0 0 1-17.655166-17.655167v-88.275831c0-4.696274 1.871448-9.180686 5.155309-12.499858l247.172328-247.172329a17.655166 17.655166 0 0 1 24.964405 0l52.965499 52.965499a17.655166 17.655166 0 0 1-24.964405 24.964406L838.620577 678.205912l-229.517162 229.517163v63.329081h63.311426l277.327353-277.345008a17.655166 17.655166 0 0 1 24.964405 24.964406l-282.482661 282.482661A17.655166 17.655166 0 0 1 679.72408 1006.344834z" ></path><path d="M961.677086 723.809207a17.655166 17.655166 0 0 1-12.499857-30.119714 44.491019 44.491019 0 0 0 0-62.817082 44.491019 44.491019 0 0 0-62.781772 0 17.655166 17.655166 0 0 1-24.964405-24.964405 79.819007 79.819007 0 0 1 112.710582 0 79.836662 79.836662 0 0 1 0 112.745892 17.584546 17.584546 0 0 1-12.464548 5.155309z" ></path></svg>
