<?xml version="1.0" standalone="no"?><!DOCTYPE svg PUBLIC "-//W3C//DTD SVG 1.1//EN" "http://www.w3.org/Graphics/SVG/1.1/DTD/svg11.dtd"><svg t="1553148041569" class="icon" style="" viewBox="0 0 1024 1024" version="1.1" xmlns="http://www.w3.org/2000/svg" p-id="3714" xmlns:xlink="http://www.w3.org/1999/xlink" width="200" height="200"><defs><style type="text/css"></style></defs><path d="M687.030857 877.421714l-64.950857-34.450285 300.032-476.964572 64.950857 34.450286-300.032 476.964571zM256 365.714286h438.857143v73.142857H256V365.714286z m0 219.428571h292.571429v73.142857H256V585.142857z m585.142857-438.857143c0-69.412571 0.438857-73.142857-73.142857-73.142857v73.142857a73.142857 73.142857 0 0 1-73.142857 73.142857H256a73.142857 73.142857 0 0 1-73.142857-73.142857V73.142857c-69.12 0-73.142857 3.876571-73.142857 73.142857v679.204572C109.714286 894.756571 164.278857 950.857143 231.643429 950.857143h487.570285c49.078857 0 90.770286-30.208 110.08-73.142857H914.285714a146.285714 146.285714 0 0 1-146.285714 146.285714H182.857143a146.285714 146.285714 0 0 1-146.285714-146.285714V146.285714a146.285714 146.285714 0 0 1 146.285714-146.285714h73.142857v73.142857a73.142857 73.142857 0 0 0 73.142857 73.142857h292.571429a73.142857 73.142857 0 0 0 73.142857-73.142857V0h73.142857a146.285714 146.285714 0 0 1 146.285714 146.285714v219.428572h-73.142857V146.285714zM585.142857 73.142857h-219.428571a36.571429 36.571429 0 0 1 0-73.142857h219.428571a36.571429 36.571429 0 0 1 0 73.142857z" p-id="3715"></path></svg>