<?xml version="1.0" standalone="no"?><!DOCTYPE svg PUBLIC "-//W3C//DTD SVG 1.1//EN" "http://www.w3.org/Graphics/SVG/1.1/DTD/svg11.dtd"><svg t="1553147985308" class="icon" style="" viewBox="0 0 1024 1024" version="1.1" xmlns="http://www.w3.org/2000/svg" p-id="3539" xmlns:xlink="http://www.w3.org/1999/xlink" width="200" height="200"><defs><style type="text/css"></style></defs><path d="M 712.533 388.267 c -162.133 0 -298.667 132.267 -298.667 298.667 s 132.267 298.667 298.667 298.667 s 298.667 -132.267 298.667 -298.667 C 1015.47 520.533 878.933 388.267 712.533 388.267 Z M 712.533 934.4 c -136.533 0 -247.467 -110.933 -247.467 -247.467 s 110.933 -247.467 247.467 -247.467 s 247.467 110.933 247.467 247.467 S 849.067 934.4 712.533 934.4 Z" p-id="3540"></path><path d="M 162.133 209.067 l 426.667 0 l 0 68.2667 l -426.667 0 L 162.133 209.067 L 162.133 209.067 Z" p-id="3541"></path><path d="M 162.133 384 l 341.333 0 l 0 68.2667 l -341.333 0 L 162.133 384 Z" p-id="3542"></path><path d="M 162.133 584.533 l 170.667 0 l 0 68.2667 l -170.667 0 L 162.133 584.533 L 162.133 584.533 Z" p-id="3543"></path><path d="M 371.2 900.267 l -298.667 0 L 72.5333 68.2667 l 686.933 0 l 0 238.933 c 17.0667 0 55.4667 4.26667 72.5333 4.26667 L 832 34.1333 c 0 -17.0667 -17.0667 -34.1333 -34.1333 -34.1333 L 34.1333 0 C 17.0667 0 0 17.0667 0 34.1333 L 0 938.667 c 0 17.0667 17.0667 34.1333 34.1333 34.1333 l 379.733 0 C 396.8 951.467 384 917.333 371.2 900.267 L 371.2 900.267 Z" p-id="3544"></path><path d="M 883.2 631.467 c -4.26667 -12.8 -12.8 -17.0667 -25.6 -21.3333 l -81.0667 -12.8 l -38.4 -72.5333 c -8.53333 -21.3333 -42.6667 -21.3333 -55.4667 0 l -38.4 72.5333 l -81.0667 12.8 c -12.8 0 -21.3333 8.53333 -25.6 21.3333 c -4.26667 12.8 0 21.3333 8.53333 29.8667 l 59.7333 55.4667 L 597.333 802.133 c 0 12.8 4.26667 21.3333 12.8 29.8667 c 8.53333 8.53333 21.3333 8.53333 34.1333 4.26667 l 72.5333 -38.4 l 72.5333 38.4 c 4.26667 4.26667 8.53333 4.26667 12.8 4.26667 c 8.53333 0 12.8 -4.26667 17.0667 -4.26667 c 8.53333 -8.53333 12.8 -17.0667 12.8 -29.8667 l -12.8 -81.0667 l 59.7333 -55.4667 C 883.2 657.067 883.2 644.267 883.2 631.467 Z M 759.467 691.2 c -8.53333 8.53333 -8.53333 17.0667 -8.53333 25.6 l 4.26667 38.4 L 725.333 733.867 c -4.26667 -4.26667 -8.53333 -4.26667 -12.8 -4.26667 s -8.53333 0 -12.8 4.26667 l -34.1333 17.0667 l 4.26667 -34.1333 c 0 -8.53333 0 -21.3333 -8.53333 -25.6 l -25.6 -25.6 l 38.4 -4.26667 c 8.53333 0 17.0667 -8.53333 21.3333 -17.0667 l 17.0667 -34.1333 l 17.0667 34.1333 c 4.26667 8.53333 12.8 12.8 21.3333 17.0667 l 38.4 4.26667 L 759.467 691.2 Z" p-id="3545"></path></svg>