<?xml version="1.0" standalone="no"?><!DOCTYPE svg PUBLIC "-//W3C//DTD SVG 1.1//EN" "http://www.w3.org/Graphics/SVG/1.1/DTD/svg11.dtd"><svg t="1553147780344" class="icon" style="" viewBox="0 0 1024 1024" version="1.1" xmlns="http://www.w3.org/2000/svg" p-id="2395" xmlns:xlink="http://www.w3.org/1999/xlink" width="200" height="200"><defs><style type="text/css"></style></defs><path d="M756.554831 792.725662l91.427446 0c25.25184 0 45.716086-20.462671 45.716086-45.714511l0-320.007877c0-25.242388-20.462671-45.714511-45.716086-45.714511l-91.427446 0c-25.248689 0-45.716086 20.472123-45.716086 45.714511l0 320.007877C710.84032 772.262991 731.306142 792.725662 756.554831 792.725662zM497.489132 792.725662l91.435323 0c25.250265 0 45.716086-20.462671 45.716086-45.714511L634.640542 244.146806c0-25.250265-20.464246-45.714511-45.716086-45.714511l-91.435323 0c-25.250265 0-45.714511 20.464246-45.714511 45.714511l0 502.86592C451.774622 772.262991 472.238868 792.725662 497.489132 792.725662zM954.656295 838.448049 116.523323 838.448049 116.523323 152.717785C116.515446 127.46752 96.0512 107.003274 70.808812 107.003274c-25.250265 0-45.720812 20.464246-45.720812 45.714511l0 731.444775c0 25.250265 20.472123 45.714511 45.720812 45.714511l883.849058 0c25.248689 0 45.712935-20.462671 45.712935-45.714511C1000.369231 858.913871 979.90656 838.448049 954.656295 838.448049zM238.431311 792.725662l91.429022 0c25.250265 0 45.720812-20.462671 45.720812-45.714511l0-91.429022c0-25.248689-20.472123-45.716086-45.720812-45.716086l-91.429022 0c-25.250265 0-45.714511 20.465822-45.714511 45.716086l0 91.429022C192.7168 772.262991 213.181046 792.725662 238.431311 792.725662z" p-id="2396"></path></svg>