<?xml version="1.0" standalone="no"?><!DOCTYPE svg PUBLIC "-//W3C//DTD SVG 1.1//EN" "http://www.w3.org/Graphics/SVG/1.1/DTD/svg11.dtd"><svg t="1553147880601" class="icon" style="" viewBox="0 0 1024 1024" version="1.1" xmlns="http://www.w3.org/2000/svg" p-id="2817" xmlns:xlink="http://www.w3.org/1999/xlink" width="200" height="200"><defs><style type="text/css"></style></defs><path d="M345.702206 674.201796l221.798276-63.078365-158.310311-157.695911-63.487965 220.774276z m592.895668-431.922958L780.287563 84.992526 431.308558 431.309132l158.310312 157.286312 348.979004-346.316606z m-46.079974 583.474873c0 54.886369-44.646375 99.327944-99.327944 99.327944H198.246289c-54.886369 0-99.327944-44.646375-99.327944-99.327944V231.014844C98.918345 176.128475 143.35992 131.4821 198.246289 131.4821h396.492578l99.327944-99.327945H165.478307C74.342358 32.768555 0 106.496514 0 197.632463v660.88923C0 949.657642 73.727959 1024 165.478307 1024h660.88923c91.135949 0 165.478307-73.727959 165.478308-165.478307V329.933189l-99.327945 99.327944v396.492578z m119.807933-715.775599L913.407488 11.674167c-16.383991-16.383991-44.031975-15.359991-61.439965 2.047999l-47.718373 47.103973 158.310311 157.286312 47.718373-47.103973c17.40799-17.40799 18.43199-44.646375 2.047999-61.030366z" p-id="2818"></path></svg>