<?xml version="1.0" standalone="no"?><!DOCTYPE svg PUBLIC "-//W3C//DTD SVG 1.1//EN" "http://www.w3.org/Graphics/SVG/1.1/DTD/svg11.dtd"><svg t="1553134977308" class="icon" style="" viewBox="0 0 1024 1024" version="1.1" xmlns="http://www.w3.org/2000/svg" p-id="3115" xmlns:xlink="http://www.w3.org/1999/xlink" width="200" height="200"><defs><style type="text/css"></style></defs><path d="M831.1 994.8H666.5c-30.2 0-54.9-24.6-54.9-54.9V712.8H412.5v227.1c0 30.2-24.6 54.9-54.9 54.9H193.1c-30.3 0-54.9-24.6-54.9-54.9V575.7H55.9C25.6 575.7 1 551.1 1 520.8c0-14.9 6.2-29.4 17-39.7L474.1 45.8c21.2-20.3 54.5-20.3 75.8 0L1006 481.1c10.6 10.1 16.6 23.8 17 38.4 0.3 14.7-5.1 28.6-15.2 39.2-10.3 10.8-24.7 17-39.6 17H886v364.2c0 30.3-24.6 54.9-54.9 54.9zM357.6 658h308.9v282h164.6V520.8h137.1L512 85.5 55.9 520.8h137.2v419.1h164.6V658z" p-id="3116"></path></svg>